<svg stroke="rgba(203,37,156,0.671)" stroke-width="0" viewBox="0 0 24 24" class="text-white text-2xl font-black" height="2em" width="2em" xmlns="http://www.w3.org/2000/svg">
    <defs>
        <linearGradient id="circleGradient" x1="0%" y1="0%" x2="100%" y2="100%">
            <stop offset="0%" stop-color="#2563EB" />
            <stop offset="100%" stop-color="rgba(203,37,156,0.671)" />
        </linearGradient>
    </defs>

    <!-- Vòng tròn nền -->
    <circle cx="12" cy="12" r="12" fill="url(#circleGradient)" />

    <g transform="translate(2,2) scale(0.8)">
        <path fill="white" d="M22 5.18 10.59 16.6l-4.24-4.24 1.41-1.41 2.83 2.83 10-10L22 5.18zM12 20c-4.41 0-8-3.59-8-8s3.59-8 8-8c1.57 0 3.04.46 4.28 1.25l1.45-1.45A10.02 10.02 0 0 0 12 2C6.48 2 2 6.48 2 12s4.48 10 10 10c1.73 0 3.36-.44 4.78-1.22l-1.5-1.5c-1 .46-2.11.72-3.28.72zm7-5h-3v2h3v3h2v-3h3v-2h-3v-3h-2v3z"/>
    </g>
</svg>